<?xml version="1.0" encoding="UTF-8" ?>
<!DOCTYPE svg PUBLIC "-//W3C//DTD SVG 1.1//EN" "http://www.w3.org/Graphics/SVG/1.1/DTD/svg11.dtd">
<svg width="275pt" height="139pt" viewBox="0 0 275 139" version="1.1" xmlns="http://www.w3.org/2000/svg">
<g id="#486664ff">
<path fill="#486664" opacity="1.00" d=" M 35.32 9.31 C 40.52 6.46 46.19 4.43 52.09 3.64 C 60.97 2.07 69.85 4.72 78.41 6.66 C 81.16 4.66 84.57 3.28 88.02 3.96 C 93.70 4.71 98.28 10.20 97.69 15.96 C 97.25 18.69 95.94 21.19 93.92 23.08 C 89.57 26.92 82.37 26.80 78.22 22.73 C 75.84 20.60 74.79 17.42 74.69 14.30 C 66.70 12.04 58.16 10.36 49.93 12.34 C 44.69 13.42 39.95 16.00 35.44 18.79 C 35.92 16.35 38.48 15.19 39.27 12.98 C 39.77 10.55 36.88 10.18 35.32 9.31 M 83.29 7.32 C 77.72 8.90 75.78 16.97 80.43 20.62 C 84.85 25.27 93.96 22.37 94.56 15.90 C 95.71 9.92 88.65 5.01 83.29 7.32 Z" />
</g>
<g id="#33a499ff">
<path fill="#33a499" opacity="1.00" d=" M 188.10 8.13 C 202.03 1.90 218.20 3.35 232.20 8.47 C 230.87 11.01 229.52 13.66 226.96 15.18 C 220.48 13.29 213.75 12.24 207.00 12.12 C 201.27 12.20 195.76 13.91 190.40 15.80 C 191.03 14.00 192.64 12.92 194.03 11.74 C 194.07 10.71 194.02 9.70 193.90 8.68 C 191.97 8.47 190.04 8.31 188.10 8.13 Z" />
</g>
<g id="#2db7a9ff">
<path fill="#2db7a9" opacity="1.00" d=" M 232.20 8.47 C 234.89 7.99 237.10 5.83 240.01 6.13 C 246.83 5.58 253.04 12.29 251.65 19.08 C 262.97 28.64 270.02 43.17 269.88 58.04 C 270.22 74.86 261.88 91.44 248.52 101.57 C 241.19 107.16 232.55 111.18 223.45 112.73 C 223.58 112.38 223.84 111.69 223.97 111.34 C 226.52 110.35 229.43 110.15 231.71 108.56 C 232.41 107.14 232.02 105.53 231.97 104.03 C 228.46 104.75 224.93 106.24 221.32 105.20 C 233.56 102.43 245.30 96.03 252.74 85.71 C 260.38 75.42 263.50 61.84 260.77 49.29 C 258.91 40.33 254.01 32.11 247.17 26.06 C 241.44 30.12 232.44 27.94 229.78 21.29 C 228.50 19.31 230.27 15.21 226.96 15.18 C 229.52 13.66 230.87 11.01 232.20 8.47 M 237.38 9.54 C 233.66 10.88 230.85 15.25 232.18 19.15 C 233.37 23.54 238.63 26.37 242.92 24.80 C 247.17 23.72 250.10 18.67 248.35 14.51 C 246.96 10.13 241.55 7.99 237.38 9.54 Z" />
</g>
<g id="#38928aff">
<path fill="#38928a" opacity="1.00" d=" M 151.42 36.36 C 161.90 25.02 173.60 14.02 188.10 8.13 C 190.04 8.31 191.97 8.47 193.90 8.68 C 194.02 9.70 194.07 10.71 194.03 11.74 C 192.64 12.92 191.03 14.00 190.40 15.80 L 190.31 16.00 C 176.23 22.31 165.07 33.40 154.82 44.66 C 154.92 41.61 155.02 38.57 155.09 35.52 C 153.86 35.78 152.63 36.04 151.42 36.36 Z" />
</g>
<g id="#4d5253ff">
<path fill="#4d5253" opacity="1.00" d=" M 5.75 61.01 C 6.27 40.38 17.23 19.74 35.32 9.31 C 36.88 10.18 39.77 10.55 39.27 12.98 C 38.48 15.19 35.92 16.35 35.44 18.79 C 25.29 26.75 17.82 38.19 15.23 50.90 C 12.50 63.45 14.72 77.63 23.38 87.48 C 21.07 89.05 18.97 91.00 17.70 93.51 C 9.73 84.72 5.93 72.75 5.75 61.01 Z" />
<path fill="#4d5253" opacity="1.00" d=" M 200.59 129.60 C 196.92 126.59 204.64 122.75 205.40 126.66 C 203.86 126.28 202.35 126.38 200.89 126.97 C 201.13 127.55 201.62 128.70 201.86 129.28 C 201.54 129.36 200.91 129.52 200.59 129.60 Z" />
</g>
<g id="#417874ff">
<path fill="#417874" opacity="1.00" d=" M 93.92 23.08 C 95.94 21.19 97.25 18.69 97.69 15.96 C 105.37 20.48 112.24 26.28 118.53 32.57 C 122.41 32.15 126.77 32.28 129.89 35.09 C 134.58 38.85 135.05 46.54 130.79 50.81 C 126.53 55.55 118.37 55.62 114.01 50.98 C 110.57 47.61 109.95 42.09 112.32 37.93 C 106.71 32.36 100.54 27.39 93.92 23.08 M 120.45 35.51 C 114.48 36.43 111.72 44.65 116.09 48.86 C 120.22 53.43 128.77 51.65 130.44 45.63 C 132.43 39.81 126.18 33.95 120.45 35.51 Z" />
</g>
<g id="#3b8881ff">
<path fill="#3b8881" opacity="1.00" d=" M 151.42 36.36 C 152.63 36.04 153.86 35.78 155.09 35.52 C 155.02 38.57 154.92 41.61 154.82 44.66 C 148.72 51.24 143.24 58.39 137.04 64.86 C 136.73 61.92 136.84 58.94 136.92 55.99 C 134.93 57.79 133.02 59.84 130.37 60.62 C 137.13 52.33 144.07 44.13 151.42 36.36 Z" />
</g>
<g id="#555658ff">
<path fill="#555658" opacity="1.00" d=" M 33.41 48.45 C 36.58 48.51 39.82 48.16 42.94 48.91 C 46.19 50.36 46.59 55.40 43.26 57.02 C 47.60 57.78 48.15 64.34 44.53 66.33 C 41.06 67.97 37.12 67.19 33.42 67.36 C 33.42 61.05 33.44 54.75 33.41 48.45 M 36.26 50.85 C 36.22 52.69 36.20 54.53 36.19 56.37 C 38.43 56.16 42.25 56.82 42.83 53.87 C 43.09 50.28 38.60 50.97 36.26 50.85 M 36.19 58.50 C 36.20 60.61 36.20 62.73 36.20 64.84 C 38.29 64.76 40.47 64.99 42.49 64.33 C 44.21 63.68 44.09 61.59 43.78 60.12 C 42.01 57.81 38.69 58.81 36.19 58.50 Z" />
</g>
<g id="#4f6565ff">
<path fill="#4f6565" opacity="1.00" d=" M 61.74 48.49 C 62.68 48.44 63.62 48.42 64.56 48.43 C 64.53 54.75 64.56 61.06 64.54 67.38 C 63.84 67.37 62.45 67.35 61.75 67.34 C 61.75 61.05 61.77 54.77 61.74 48.49 Z" />
</g>
<g id="#4c716fff">
<path fill="#4c716f" opacity="1.00" d=" M 79.20 48.46 C 83.43 48.45 87.66 48.42 91.88 48.47 C 88.73 53.85 85.83 59.39 82.64 64.76 C 85.71 64.78 88.78 64.77 91.85 64.77 C 91.88 65.41 91.96 66.69 91.99 67.32 C 87.40 67.38 82.80 67.35 78.20 67.34 C 81.36 61.91 84.37 56.38 87.43 50.89 C 84.66 50.93 81.90 50.93 79.14 50.86 C 79.15 50.26 79.18 49.06 79.20 48.46 Z" />
</g>
<g id="#487e7aff">
<path fill="#487e7a" opacity="1.00" d=" M 106.18 48.44 C 106.84 48.44 108.18 48.44 108.84 48.44 C 108.78 54.76 108.93 61.08 108.77 67.40 C 108.14 67.40 106.88 67.40 106.25 67.40 C 106.10 61.09 106.24 54.76 106.18 48.44 Z" />
</g>
<g id="#3f9b92ff">
<path fill="#3f9b92" opacity="1.00" d=" M 158.38 48.39 C 159.32 48.48 160.27 48.54 161.22 48.59 C 161.16 51.17 161.14 53.74 161.12 56.32 C 164.16 56.37 167.20 56.23 170.23 56.47 C 167.17 57.33 163.96 57.27 160.81 57.48 C 163.95 57.78 167.14 57.81 170.23 58.54 C 167.20 58.80 164.16 58.66 161.13 58.70 C 161.16 61.58 161.17 64.47 161.17 67.36 C 160.48 67.22 159.12 66.95 158.44 66.82 C 158.31 60.68 158.46 54.53 158.38 48.39 Z" />
</g>
<g id="#3da198ff">
<path fill="#3da198" opacity="1.00" d=" M 170.15 48.45 C 170.81 48.46 172.15 48.46 172.82 48.46 C 172.78 54.75 172.74 61.04 172.84 67.33 C 172.16 67.33 170.79 67.32 170.11 67.32 C 170.18 64.39 170.15 61.47 170.23 58.54 C 167.14 57.81 163.95 57.78 160.81 57.48 C 163.96 57.27 167.17 57.33 170.23 56.47 C 170.15 53.80 170.15 51.12 170.15 48.45 Z" />
</g>
<g id="#39aba0ff">
<path fill="#39aba0" opacity="1.00" d=" M 188.78 48.58 C 189.73 48.51 190.68 48.46 191.64 48.41 C 191.53 54.73 191.79 61.06 191.52 67.37 C 190.85 67.36 189.50 67.35 188.82 67.34 C 188.81 61.09 188.88 54.83 188.78 48.58 Z" />
</g>
<g id="#35b9acff">
<path fill="#35b9ac" opacity="1.00" d=" M 219.31 48.47 C 219.97 48.46 221.30 48.45 221.96 48.44 C 219.71 54.74 217.29 60.98 214.92 67.24 C 214.34 67.29 213.17 67.38 212.59 67.43 C 209.82 61.24 207.84 54.72 205.24 48.45 C 205.95 48.47 207.36 48.51 208.07 48.53 C 210.13 53.62 211.61 58.93 213.87 63.94 C 215.43 58.70 217.50 53.62 219.31 48.47 Z" />
</g>
<g id="#31c8b8ff">
<path fill="#31c8b8" opacity="1.00" d=" M 235.73 48.48 C 240.37 48.46 245.02 48.48 249.66 48.46 C 249.68 49.05 249.72 50.25 249.74 50.84 C 246.00 50.97 242.26 50.87 238.52 50.87 C 238.47 52.70 238.48 54.53 238.44 56.36 C 241.30 56.37 244.17 56.32 247.03 56.32 C 248.75 55.83 249.59 57.01 249.16 58.62 C 245.59 58.68 242.02 58.64 238.45 58.64 C 238.48 60.70 238.46 62.75 238.48 64.81 C 242.19 64.78 245.91 64.79 249.62 64.78 C 249.65 65.42 249.70 66.69 249.72 67.33 C 245.06 67.36 240.40 67.33 235.73 67.34 C 235.74 61.05 235.75 54.76 235.73 48.48 Z" />
</g>
<g id="#3e807aff">
<path fill="#3e807a" opacity="1.00" d=" M 130.37 60.62 C 133.02 59.84 134.93 57.79 136.92 55.99 C 136.84 58.94 136.73 61.92 137.04 64.86 L 137.82 64.62 C 129.51 73.47 121.88 83.05 112.62 90.98 C 113.00 88.64 114.61 86.85 115.71 84.84 C 116.30 83.23 115.94 81.50 115.88 79.85 C 115.13 79.49 114.38 79.14 113.63 78.80 C 119.51 73.02 124.74 66.61 130.37 60.62 Z" />
</g>
<g id="#399188ff">
<path fill="#399188" opacity="1.00" d=" M 139.19 79.13 C 136.61 71.95 143.67 64.11 151.03 65.10 C 158.23 65.23 163.82 73.46 160.74 80.14 C 165.64 84.83 170.53 89.77 176.46 93.14 C 174.22 95.02 172.70 97.58 172.20 100.46 C 166.03 96.28 160.39 91.37 155.10 86.12 C 149.05 88.85 140.96 85.72 139.19 79.13 M 148.17 68.23 C 143.06 69.12 139.71 75.67 142.83 80.11 C 146.23 86.19 156.88 84.96 158.37 77.97 C 160.16 72.12 153.81 66.65 148.17 68.23 Z" />
</g>
<g id="#417772ff">
<path fill="#417772" opacity="1.00" d=" M 91.90 96.65 C 99.91 91.70 107.00 85.44 113.63 78.80 C 114.38 79.14 115.13 79.49 115.88 79.85 C 115.94 81.50 116.30 83.23 115.71 84.84 C 114.61 86.85 113.00 88.64 112.62 90.98 C 106.63 96.71 99.83 101.64 92.60 105.70 C 93.54 102.62 95.04 99.02 91.90 96.65 Z" />
</g>
<g id="#496161ff">
<path fill="#496161" opacity="1.00" d=" M 23.38 87.48 C 31.20 82.46 42.69 90.85 39.80 99.87 C 47.29 103.09 55.28 105.32 63.44 105.87 C 66.43 107.56 69.80 107.10 73.02 106.53 C 72.91 107.93 72.78 109.33 72.65 110.73 C 69.90 111.75 66.59 111.61 64.42 113.83 L 64.04 114.13 C 53.96 113.59 43.98 110.89 34.89 106.52 C 29.84 109.35 22.87 108.32 19.42 103.48 C 17.15 100.70 16.98 96.89 17.70 93.51 C 18.97 91.00 21.07 89.05 23.38 87.48 M 25.43 89.63 C 20.29 91.37 18.41 98.74 22.47 102.49 C 26.68 107.27 35.50 105.15 37.02 98.93 C 38.71 92.59 31.22 86.97 25.43 89.63 Z" />
</g>
<g id="#34a498ff">
<path fill="#34a498" opacity="1.00" d=" M 176.46 93.14 C 181.11 88.92 189.23 90.07 192.85 95.11 C 194.61 97.40 195.18 100.34 195.13 103.18 C 199.66 104.70 204.35 105.84 209.12 106.30 C 213.23 106.61 217.25 105.39 221.32 105.20 C 224.93 106.24 228.46 104.75 231.97 104.03 C 232.02 105.53 232.41 107.14 231.71 108.56 C 229.43 110.15 226.52 110.35 223.97 111.34 C 223.84 111.69 223.58 112.38 223.45 112.73 C 212.95 115.94 201.26 114.21 190.99 110.39 C 188.16 111.51 185.22 113.27 182.02 112.52 C 176.23 111.84 171.54 106.33 172.20 100.46 C 172.70 97.58 174.22 95.02 176.46 93.14 M 180.23 94.21 C 174.63 96.11 173.34 104.32 178.16 107.79 C 182.77 111.81 190.99 109.04 191.97 102.94 C 193.36 96.70 185.80 91.46 180.23 94.21 Z" />
</g>
<g id="#446e6bff">
<path fill="#446e6b" opacity="1.00" d=" M 63.44 105.87 C 73.54 105.34 83.33 101.94 91.90 96.65 C 95.04 99.02 93.54 102.62 92.60 105.70 C 83.95 110.39 74.31 113.56 64.42 113.83 C 66.59 111.61 69.90 111.75 72.65 110.73 C 72.78 109.33 72.91 107.93 73.02 106.53 C 69.80 107.10 66.43 107.56 63.44 105.87 Z" />
</g>
<g id="#4c4c4eff">
<path fill="#4c4c4e" opacity="1.00" d=" M 89.37 124.48 C 89.66 124.46 90.23 124.41 90.52 124.38 C 90.50 128.82 90.60 133.26 90.50 137.70 C 90.19 137.79 89.58 137.97 89.27 138.06 C 89.31 133.53 89.04 128.99 89.37 124.48 Z" />
<path fill="#4c4c4e" opacity="1.00" d=" M 173.67 124.62 C 173.93 124.52 174.43 124.31 174.68 124.21 C 174.92 128.88 174.84 133.56 174.71 138.23 C 174.44 138.08 173.92 137.76 173.66 137.61 C 173.58 133.28 173.57 128.94 173.67 124.62 Z" />
<path fill="#4c4c4e" opacity="1.00" d=" M 19.38 134.50 C 15.50 132.55 16.56 125.80 20.89 125.20 C 22.25 125.24 24.54 124.65 24.39 126.74 C 22.71 126.50 20.69 125.93 19.35 127.37 C 18.17 128.89 18.05 131.25 19.31 132.77 C 20.70 134.31 22.78 133.41 24.50 133.30 C 23.95 135.51 21.03 135.13 19.38 134.50 Z" />
<path fill="#4c4c4e" opacity="1.00" d=" M 29.48 125.66 C 32.49 123.82 36.61 126.52 36.27 130.00 C 36.51 133.22 33.12 135.95 30.04 134.72 C 26.34 133.32 26.07 127.54 29.48 125.66 M 30.05 126.87 C 27.05 128.69 28.72 134.72 32.54 133.62 C 36.91 132.35 34.43 124.10 30.05 126.87 Z" />
<path fill="#4c4c4e" opacity="1.00" d=" M 39.81 125.58 C 40.05 125.43 40.52 125.13 40.76 124.98 C 41.05 127.83 40.79 130.70 41.03 133.56 C 41.93 133.55 43.74 133.54 44.64 133.54 L 44.80 134.79 C 43.11 134.74 41.40 134.79 39.72 134.59 C 39.83 131.58 39.62 128.57 39.81 125.58 Z" />
<path fill="#4c4c4e" opacity="1.00" d=" M 56.16 125.31 C 57.90 125.25 59.64 125.26 61.38 125.35 C 60.84 127.10 58.81 126.24 57.50 126.48 C 57.48 127.17 57.46 128.54 57.45 129.23 C 58.29 129.25 59.97 129.28 60.81 129.30 C 60.80 129.63 60.78 130.27 60.77 130.59 C 59.94 130.60 58.28 130.62 57.45 130.63 C 57.46 131.35 57.48 132.80 57.49 133.52 C 58.84 133.82 61.08 132.79 61.55 134.72 C 59.75 134.76 57.96 134.75 56.16 134.69 C 56.13 131.57 56.14 128.44 56.16 125.31 Z" />
<path fill="#4c4c4e" opacity="1.00" d=" M 67.32 125.34 C 68.79 125.24 71.56 124.40 71.44 126.72 C 69.78 126.46 67.76 125.98 66.45 127.40 C 65.32 128.87 65.18 131.18 66.36 132.66 C 67.66 134.27 69.78 133.48 71.49 133.33 C 71.29 135.50 68.49 135.00 66.99 134.70 C 62.91 133.21 63.27 126.66 67.32 125.34 Z" />
<path fill="#4c4c4e" opacity="1.00" d=" M 73.63 125.33 C 76.04 125.22 78.47 125.20 80.88 125.36 C 80.80 126.96 78.99 126.26 77.97 126.54 C 77.86 129.38 78.17 132.24 77.69 135.06 C 77.42 134.92 76.90 134.63 76.64 134.49 C 76.46 131.85 76.65 129.20 76.61 126.56 C 75.18 126.84 74.18 126.43 73.63 125.33 Z" />
<path fill="#4c4c4e" opacity="1.00" d=" M 102.64 125.45 C 102.92 125.36 103.48 125.17 103.76 125.08 C 105.15 128.20 106.27 131.43 107.57 134.59 C 105.85 135.40 105.66 133.31 104.99 132.25 C 103.80 132.23 102.62 132.23 101.43 132.24 C 100.93 133.41 100.67 134.92 99.12 135.05 C 99.85 131.72 101.23 128.55 102.64 125.45 M 103.16 127.64 C 102.35 128.43 101.33 130.74 102.94 131.22 C 105.33 131.68 104.41 128.20 103.16 127.64 Z" />
<path fill="#4c4c4e" opacity="1.00" d=" M 110.60 125.23 C 111.01 125.26 111.83 125.32 112.24 125.35 C 113.83 127.79 115.32 130.29 117.10 132.60 C 117.27 130.20 116.45 127.59 117.32 125.31 C 117.59 125.30 118.13 125.28 118.39 125.27 C 118.38 128.45 118.39 131.64 118.33 134.82 C 114.89 134.29 114.36 129.62 111.94 127.50 C 112.01 130.01 112.25 132.56 111.75 135.04 C 111.46 134.91 110.89 134.63 110.60 134.49 C 110.43 131.40 110.60 128.32 110.60 125.23 Z" />
<path fill="#4c4c4e" opacity="1.00" d=" M 125.16 125.10 C 125.46 125.20 126.06 125.39 126.36 125.49 C 127.80 128.52 128.89 131.72 129.98 134.89 C 128.29 135.06 128.02 133.46 127.51 132.25 C 126.34 132.23 125.16 132.23 123.99 132.24 C 123.40 133.34 122.74 134.40 121.93 135.36 C 121.65 131.77 124.14 128.50 125.16 125.10 M 126.64 130.92 C 126.95 129.70 126.67 128.60 125.78 127.61 C 124.02 128.28 124.02 132.56 126.64 130.92 Z" />
<path fill="#4c4c4e" opacity="1.00" d=" M 133.25 125.28 C 133.54 125.29 134.13 125.29 134.42 125.29 C 134.40 128.03 134.39 130.77 134.38 133.51 C 135.71 133.80 137.90 132.81 138.36 134.70 C 136.60 134.74 134.84 134.76 133.09 134.71 C 132.99 131.59 132.57 128.36 133.25 125.28 Z" />
<path fill="#4c4c4e" opacity="1.00" d=" M 140.10 125.20 C 142.61 124.84 142.58 128.21 143.71 129.67 C 145.26 128.41 145.17 124.82 147.65 125.32 C 146.65 127.31 145.57 129.25 144.52 131.21 C 143.90 132.29 143.41 133.45 143.04 134.64 C 143.85 131.07 141.36 128.28 140.10 125.20 Z" />
<path fill="#4c4c4e" opacity="1.00" d=" M 150.29 128.59 C 148.94 125.39 155.11 123.53 156.05 126.58 C 154.48 126.68 151.88 125.59 151.36 127.87 C 152.95 129.38 155.18 130.12 156.39 132.04 C 156.05 135.13 150.76 136.32 149.77 133.26 C 151.61 133.50 153.98 134.45 155.03 132.18 C 153.54 130.90 151.35 130.28 150.29 128.59 Z" />
<path fill="#4c4c4e" opacity="1.00" d=" M 159.60 125.33 C 161.29 125.24 162.98 125.25 164.67 125.34 C 164.44 127.17 162.21 126.19 160.98 126.50 C 160.96 127.18 160.91 128.54 160.89 129.23 C 161.77 129.24 163.53 129.28 164.41 129.29 C 164.61 131.45 162.14 130.34 160.90 130.66 C 160.92 131.38 160.96 132.81 160.97 133.53 C 162.22 133.55 163.46 133.56 164.70 133.58 C 164.72 133.87 164.76 134.46 164.78 134.76 C 163.05 134.76 161.33 134.74 159.61 134.68 C 159.59 131.56 159.59 128.45 159.60 125.33 Z" />
<path fill="#4c4c4e" opacity="1.00" d=" M 183.27 125.17 C 183.62 125.22 184.32 125.32 184.67 125.37 C 185.83 127.81 186.48 130.46 187.53 132.95 C 188.57 130.17 189.15 127.15 190.90 124.69 L 191.42 125.74 C 190.51 128.89 189.18 131.89 188.03 134.95 C 187.70 134.82 187.04 134.56 186.71 134.44 C 185.33 131.44 184.35 128.28 183.27 125.17 Z" />
<path fill="#4c4c4e" opacity="1.00" d=" M 194.69 125.51 C 194.98 125.40 195.54 125.18 195.82 125.07 C 195.96 128.38 196.05 131.71 195.75 135.02 C 195.49 134.88 194.96 134.60 194.70 134.45 C 194.59 131.48 194.61 128.49 194.69 125.51 Z" />
<path fill="#4c4c4e" opacity="1.00" d=" M 209.18 125.05 C 212.64 126.31 207.65 134.11 213.23 133.78 C 216.15 132.03 214.29 128.08 214.79 125.30 C 215.14 125.31 215.84 125.32 216.19 125.33 C 216.17 127.65 216.33 129.99 216.12 132.31 C 215.52 135.55 210.43 135.93 209.19 132.95 C 208.90 130.32 209.04 127.68 209.18 125.05 Z" />
<path fill="#4c4c4e" opacity="1.00" d=" M 223.00 124.90 C 225.94 127.18 225.98 131.57 227.73 134.70 C 225.97 135.35 225.87 133.43 225.31 132.32 C 224.05 132.22 222.80 132.28 221.55 132.23 C 221.03 133.41 220.86 135.13 219.15 134.89 C 220.25 131.49 221.58 128.17 223.00 124.90 M 223.29 127.61 C 222.43 128.60 222.14 129.71 222.41 130.93 C 222.92 130.93 223.92 130.93 224.43 130.93 C 224.75 129.88 224.28 128.08 223.29 127.61 Z" />
<path fill="#4c4c4e" opacity="1.00" d=" M 230.74 125.29 C 231.10 125.30 231.81 125.32 232.16 125.33 C 232.17 128.05 232.16 130.78 232.12 133.50 C 233.33 133.94 236.03 132.63 236.00 134.74 C 234.24 134.76 232.49 134.73 230.74 134.68 C 230.73 131.55 230.72 128.42 230.74 125.29 Z" />
<path fill="#4c4c4e" opacity="1.00" d=" M 238.89 128.98 C 239.11 127.77 238.17 124.98 240.29 125.27 C 240.25 128.56 240.37 131.85 240.14 135.13 C 237.90 133.94 239.26 131.01 238.89 128.98 Z" />
<path fill="#4c4c4e" opacity="1.00" d=" M 243.55 125.30 C 246.03 125.18 248.53 125.24 251.01 125.41 C 249.26 128.17 247.16 130.71 245.60 133.60 C 247.23 133.59 248.86 133.57 250.49 133.54 L 250.59 134.76 C 248.13 134.81 245.67 134.79 243.22 134.57 C 245.06 131.85 246.96 129.17 248.79 126.44 C 247.13 126.01 244.32 127.48 243.55 125.30 Z" />
<path fill="#4c4c4e" opacity="1.00" d=" M 254.07 125.29 C 255.74 125.26 257.41 125.26 259.08 125.28 C 258.98 127.31 256.54 126.11 255.32 126.47 C 255.31 127.15 255.29 128.52 255.28 129.21 C 256.16 129.25 257.92 129.32 258.80 129.36 C 258.97 131.45 256.45 130.29 255.28 130.66 C 255.29 131.38 255.31 132.82 255.31 133.54 C 256.72 133.79 258.92 132.81 259.49 134.72 C 257.68 134.75 255.88 134.77 254.08 134.72 C 253.81 131.58 253.82 128.42 254.07 125.29 Z" />
<path fill="#4c4c4e" opacity="1.00" d=" M 200.59 129.60 C 200.91 129.52 201.54 129.36 201.86 129.28 L 202.67 129.09 C 203.73 129.98 205.47 130.57 205.59 132.18 C 205.83 135.33 200.39 136.07 199.25 133.43 C 200.85 133.34 202.56 134.03 204.06 133.24 C 204.65 131.05 201.84 130.60 200.59 129.60 Z" />
</g>
<g id="#4e4e50ff">
<path fill="#4e4e50" opacity="1.00" d=" M 47.82 125.33 C 48.18 125.33 48.90 125.33 49.26 125.33 C 49.26 128.06 49.25 130.80 49.23 133.53 C 50.12 133.54 51.91 133.56 52.81 133.57 C 52.84 133.87 52.90 134.47 52.93 134.76 C 51.22 134.75 49.52 134.72 47.81 134.66 C 47.82 131.55 47.82 128.44 47.82 125.33 Z" />
</g>
<g id="#22222380">
<path fill="#222223" opacity="0.50" d=" M 143.04 134.64 C 143.41 133.45 143.90 132.29 144.52 131.21 C 145.70 132.31 145.29 135.50 143.29 135.15 L 143.04 134.64 Z" />
</g>
</svg>
